<?xml version="1.0" encoding="UTF-8" standalone="no"?>
<svg
   xmlns:dc="http://purl.org/dc/elements/1.1/"
   xmlns:cc="http://creativecommons.org/ns#"
   xmlns:rdf="http://www.w3.org/1999/02/22-rdf-syntax-ns#"
   xmlns:svg="http://www.w3.org/2000/svg"
   xmlns="http://www.w3.org/2000/svg"
   viewBox="0 0 3733.04 4091.5466"
   xml:space="preserve"
   id="svg10"
   version="1.1"><metadata
     id="metadata16"><rdf:RDF><cc:Work
         rdf:about=""><dc:format>image/svg+xml</dc:format><dc:type
           rdf:resource="http://purl.org/dc/dcmitype/StillImage" /><dc:title></dc:title></cc:Work></rdf:RDF></metadata><defs
     id="defs14" /><g
     transform="matrix(1.3333333,0,0,-1.3333333,0,4091.5467)"
     id="g18"><g
       transform="scale(0.1)"
       id="g20"><g
         transform="scale(1.88264)"
         id="g22"><path
           id="path24"
           style="fill:#000000;fill-opacity:1;fill-rule:evenodd;stroke:none"
           d="m 10304.6,2708.81 c 29.3,-27.89 147.1,18.16 230.2,0 145.3,899.11 176.3,1965.96 287.6,2837.72 38.9,305.05 62.3,627.89 76.7,882 -71.6,68.95 -163,118.19 -268.5,153.41 -12.6,-1308.43 -286.3,-2594.56 -326,-3873.13 z m 786.2,4563.33 c -166.6,88.22 -462.9,-8.45 -498.5,-191.76 -71.6,-368.47 326.3,-351.95 479.3,-575.15 377.5,90.73 275,631.3 19.2,766.91 z M 9269.33,6888.69 c 412.83,21.77 726.86,142.4 1150.37,153.4 5.6,230.9 180.5,292.46 287.7,421.8 -26.7,161.21 64,306.16 19.1,421.8 -325.8,-492.34 -970.29,-665.82 -1457.17,-997 z m 1553.07,594.43 c 148.4,14.07 239,-29.43 345.1,-57.58 38.4,268.35 63.3,550.13 76.7,843.65 -464.3,238.87 -316,-491.27 -421.8,-786.07 z M 7792.95,10397.4 c 216.34,-192.7 584.6,-335.7 939.48,-325.9 -130.4,86.8 -119.68,314.8 -249.28,402.6 -229.73,-63.7 -482.51,11.6 -690.2,-76.7 z m 3374.55,95.9 c -24.6,-209.6 -28.4,-413.1 57.5,-556.02 213.3,36.07 195.1,303.42 210.9,536.82 -96.4,-6.1 -211.3,47.2 -268.4,19.2 z m -2473.37,0 c 36.6,-180.7 168.59,-265.8 210.88,-441 63.95,0 127.79,0 191.75,0 86.63,169 159.93,351.3 230.1,536.9 -211.35,-31.5 -410.33,-75.5 -632.73,-95.9 z m 843.6,172.6 c -53.8,-189.2 -225.21,-362.6 -210.87,-556 376.71,89.8 665.56,267.5 843.64,556 -167.9,21.1 -412.12,-13.4 -632.77,0 z m -230.05,4179.8 c -73.46,-1226.1 -357.1,-2487.1 -364.27,-3777.2 278.07,19.9 484.69,-97.2 671.02,-134.2 148.36,-29.4 313.08,-10.9 460.17,-38.3 312.7,-58.5 623.9,-129.9 939.5,-191.8 988.5,-193.6 2005.6,-286.3 3106.1,-345.1 232.5,1186.3 407,2430.7 498.5,3758 -185.4,173.6 -453.7,215.8 -709.3,268.4 -837.5,172.5 -1786.6,175.3 -2722.7,268.5 -627.1,62.4 -1241.4,243.9 -1859.84,249.2 -22.31,-3.2 -20.82,-30.3 -19.18,-57.5 z m 2626.72,-76.7 c 90.9,14.2 131.9,-21.6 211,-19.2 25,122 49.5,244.4 38.3,402.7 -41.1,35.5 -140.4,12.9 -210.9,19.1 3.9,-150.9 -53.6,-240.3 -38.4,-402.6 z m -2166.61,268.4 c 195.15,-3 358.91,-37.3 536.81,-57.5 206.9,253.3 371.7,548.7 824.5,556.1 -19.2,76.6 -42.7,149 -76.7,210.8 -584.3,-80.2 -912.3,-417 -1284.61,-709.4 z M 813.758,2536.33 c 95.567,-122.32 108.904,-268.87 210.962,-383.55 683.51,-767.97 1894.5,-467.06 2799.33,-38.3 44.47,70.54 29.5,200.52 134.2,210.87 139.64,-113.99 -16.62,-250.71 -57.5,-364.32 C 3731.22,1490.41 3610.21,855.928 3593.9,273.818 c 185.14,-78.665 359.51,100.02 441.03,210.874 258.16,350.944 369.03,985.318 556.04,1399.738 -106.02,2.55 -202.53,14.66 -210.88,115 177.41,112.08 421.45,89.24 651.83,134.17 627.75,122.65 1552.56,186.44 2320.1,134.28 153.14,-10.46 315.41,-9.13 421.75,-115.1 32.93,-304.36 172.42,-664.92 345.16,-1054.48 204.23,-460.737 350.57,-1019.2616 862.78,-786.184 16.52,705.234 -231.17,1371.484 -402.63,2032.464 -177.52,684.36 -332.35,1354.27 -421.8,2070.72 -40.32,322.84 -152.45,735.93 19.12,997 655.46,347.92 1625.49,381.43 2281.6,728.61 23.7,243.38 111.5,568.88 -19.1,747.78 -394.7,-55.94 -770.29,-188.41 -1169.57,-210.88 -140.38,-7.97 -283,49.45 -421.8,38.3 -150.05,-12.01 -302.66,-118.45 -460.26,-153.4 -192.86,-42.82 -378.99,-51.1 -555.92,-95.88 168.17,89.98 234.99,216.51 364.23,268.45 67.45,27.09 128.7,1.01 210.92,19.18 383.61,84.51 929.18,434.02 1284.64,613.55 158.13,79.89 339.56,133.17 441.06,210.88 54.9,42.17 108.7,151.11 191.6,230.1 96.5,91.89 222.3,166.1 287.7,249.22 135.4,172.37 223.7,476.3 383.4,498.56 183.3,25.5 515.3,-225.16 671.1,-38.4 -535.9,155.68 224.4,284.86 230,536.95 -87,66.24 -238.2,68.53 -268.3,191.65 38.1,160.04 167.2,229.1 249.3,345.16 -184.6,-0.22 -382.8,-69.48 -536.9,-38.3 24.7,85.41 120.5,152.98 76.6,249.17 -246.6,-15.4 -330.9,-295.22 -479.3,-345.05 -37.5,146.13 73,144.32 76.7,249.28 -57.1,320.07 -133.2,620.97 -230.1,901.07 -149.9,3.5 -282.8,24 -402.6,57.6 -294.8,-723.15 -1711.28,-1050.93 -2492.58,-556 -136.77,86.5 -319.44,257.6 -287.62,440.9 638.3,67.2 1341.89,102.9 1859.83,268.5 -214.48,51.9 -532.28,19.3 -671.02,191.7 13.86,1264.3 245.77,2413 345.04,3527.9 -43.29,-79.3 -131.35,-169.7 -210.87,-249.3 -71.28,-71.2 -207.26,-145.5 -172.52,-210.8 59.97,29.4 148.41,30.5 230.05,38.3 88.38,-233.1 -185.59,-343.6 -210.88,-460.2 42.81,28.3 131.79,110 191.7,57.6 17.05,-170.2 -48.07,-407.7 -210.87,-460.2 -68.05,137 86.58,203.5 95.87,325.9 -77.02,-45.9 -206.68,-102.3 -268.45,-57.5 55.98,193.3 220.38,278.2 287.57,460.2 -336.81,-65.8 -526.07,-279.2 -805.3,-402.7 -45.52,39.2 26.34,75.9 -19.12,115.1 -366.3,43.5 -687.28,323 -1054.59,364.3 -119.03,13.4 -308.13,-56.1 -364.33,19.2 13.44,203.8 245.3,189.3 345.16,306.7 -131.1,21.6 -261.5,-93.1 -345.16,0 -14.66,155.4 121.16,160.1 153.46,268.5 -255.66,-64 -331.88,-307.3 -556.03,-402.7 -79.78,185.5 144.26,223.9 153.4,383.5 -162.75,-33.1 -296.98,-122 -421.85,-210.9 -119.3,-84.9 -208.86,-235.5 -345.16,-249.3 21.78,189.2 181.56,240.3 287.68,345.1 53.6,459.6 262.35,1042.9 114.95,1514.7 -794.96,-176.4 -1330.02,-612.8 -1859.75,-1054.5 -6.71,-188 75.05,-513.7 -95.88,-556 -117.58,-29.1 -179.52,131.4 -306.84,153.4 -179.44,-156.8 -365.59,-366.4 -575.15,-671.1 -83.95,-122.1 -344.21,-739.7 -517.73,-728.6 -102.59,6.6 -98.06,162.3 -191.67,134.2 -7.43,-120.4 8.34,-264 -76.7,-306.8 -226.09,42.4 -304.34,232.6 -479.33,326 56.87,-281.8 229.44,-448 268.38,-747.8 -70.3,-120.1 -249.58,-59 -364.26,-19.1 16.3,-108.6 232.56,-164.5 210.88,-306.8 -22.95,-150.8 -223.3,-109.1 -383.47,-172.6 107.75,-64.8 262.69,-82.4 345.15,-172.6 -27.39,-74.9 -114.53,-90 -95.88,-210.8 39.94,-62.3 140.11,-64.4 249.26,-57.6 -229.99,-582.7 -405.14,-1646.19 -134.26,-2320.03 -201.68,-135.02 -331.5,172.05 -613.53,134.28 97.51,-234.83 406.39,-258.3 517.73,-479.33 -101.04,-173.85 -470.6,7.39 -613.62,-95.93 189.28,-85.57 445.57,-104.05 575.23,-249.22 -22.16,-141.45 -24.5,-274.72 -115.01,-383.45 84.89,8.23 121.39,-32.03 134.2,-95.93 17.55,-102.2 -147.54,-97.1 -95.89,-172.52 210.34,1.75 401.87,76.91 594.42,38.35 571.94,-341.92 1050.27,-777.58 1744.78,-997.06 19.97,82.33 62.8,141.71 172.57,134.28 32.92,-138.64 -34.64,-333.63 -57.58,-479.33 83.32,38.09 130.38,112.5 249.28,115 82.06,-26.61 71.53,-145.75 115.06,-210.87 21.15,94.86 126.4,115.53 230.08,76.64 12.25,-70.8 -24.89,-190.95 19.19,-230.05 71.15,107.73 160.09,197.76 249.26,287.58 41.67,-23.11 175.08,-15.62 172.59,-134.17 -230,-25.71 -201.45,-310 -460.24,-306.75 -68.11,27.72 -73.33,118.29 -76.68,210.87 -64.76,-24.75 -78.33,-100.66 -191.76,-76.7 -68.51,20.98 -64.06,114.84 -115,153.35 C 3703.74,6081.84 3077.42,5462.87 2712,4607.05 c -122.8,-287.42 -297.32,-620.36 -210.97,-977.89 536.69,512.16 1092.87,1035.25 1629.79,1533.86 173.82,161.42 368.31,385.58 632.72,402.73 -198.71,-926.3 -446.1,-1969.78 -671.11,-2933.59 -417.15,-304.73 -943.53,-604.95 -1591.4,-575.15 -456.08,20.87 -804.97,431.2 -843.6,901.07 -42.43,516.89 25.6,1101.44 115,1514.74 -193.87,-315.89 -425.35,-113.4 -651.83,38.35 C 636.266,4328.08 619.732,3584.01 526.19,3073.19 409.55,3052.95 365.544,3205.72 296.113,3169.06 394.25,2883.56 651.718,2743.7 813.758,2536.33 Z M 4130.82,6831.16 c -555.41,262.61 -1127.27,508.86 -1533.91,920.3 -108.12,-12.21 -150.01,41.75 -210.87,76.71 -244.66,32.82 -523.73,-79.84 -709.49,19.17 -108.92,76.38 -118.19,252.46 -210.89,345.15 57.43,190.43 204.26,182.89 115.08,364.28 -81.45,165.57 -541.05,91.1 -536.91,364.33 2.5,160.41 145.89,190.64 345.15,191.7 -38.38,100.5 -244.66,243.96 -191.77,421.85 62.88,210.93 420.83,122.38 575.22,19.18 -177.25,628.57 57.67,1288.37 38.4,1917.37 -55.56,65.8 -177.34,65.5 -210.9,153.4 -3.82,74 -0.69,141.3 19.12,191.6 -121.08,121.8 -350.37,135.4 -325.96,402.7 62.88,103.3 225.63,106.7 364.34,134.2 -25.81,101.5 -279.29,376.3 -76.69,536.9 138.25,16.9 216.42,-26.4 306.77,-57.6 -54.69,178.4 -282.43,522.9 -153.38,824.5 88.79,48.8 129.04,-95.2 191.76,-134.2 145.9,-7.4 228.13,-78.6 325.88,-134.2 75.99,51.8 54.53,201.2 115.08,268.4 111.72,12.3 208.61,-146.6 287.56,-230.1 303.2,515 591.77,1044.5 977.88,1476.4 133.16,-7.4 199.81,-81.3 306.76,-115 0,121.4 0,242.8 0,364.3 299.28,317.5 971.39,747.5 1514.73,977.8 221.77,94 614.73,254 766.96,115.1 261.81,-239.1 -45.79,-1106.9 0,-1418.9 86.9,-15.9 303.67,129.6 402.57,0 148.57,85.7 409.75,251.7 575.31,95.9 26.29,-179.7 -83.82,-223 -153.45,-306.8 302.71,29.4 324.28,-312.5 95.87,-383.5 349.51,-65.9 664.71,-166.1 920.31,-325.9 459.04,160.9 702.58,537.4 1035.41,824.5 21.77,240.2 145.54,378.5 421.8,364.2 487.14,325 838.44,886.7 1648.94,824.5 139.3,-131.1 103.9,-347.6 57.5,-556 -226.5,-99.5 -568.8,-83.1 -632.7,-345.2 335.1,-111.4 755.3,-113.9 1131.3,-95.8 82.5,114.7 7.5,260.8 76.7,364.3 81.4,122 461.8,166.6 556,-19.2 73.4,-144.8 -14.7,-263.4 19.1,-460.1 676.8,-125.6 1516.7,-93.2 2089.9,-326 121.1,-49.1 324.8,-177.7 364.4,-268.4 116,-266.8 -42.2,-810.1 -76.7,-1073.7 -98.5,-750.8 -159.1,-1389.7 -268.5,-2109.1 -51.2,-336.4 -55.1,-696.8 -306.8,-882 -884.5,-13.9 -1688.7,128.9 -2511.7,230.1 -122.4,-274.3 90.5,-364.3 95.8,-613.6 159.7,-14.71 314.1,62.68 402.7,-38.35 59.5,-165.14 -131.9,-236.26 -76.7,-460.15 -4.4,-93.17 93.4,-105.97 95.9,-210.88 4,-164.39 -209.1,-271.85 -306.7,-364.38 132.8,-286.14 -75.6,-511.46 -402.7,-460.15 4.8,-287.73 -167.7,-558.05 -134.2,-843.6 26.3,-224.9 305.7,-348.87 191.7,-709.38 -67.4,-213 -249.3,-227.45 -402.7,-421.85 -79.7,-828.42 -247.3,-1758.44 -287.6,-2645.97 -17,-375.86 20,-852.85 -172.5,-1131.23 -201.5,3.13 -426.5,-17.43 -536.8,76.7 -142.12,1169 233.9,2140.24 249.2,3278.64 C 9753.6,5592.74 8981.87,5495.32 8348.98,5258.9 8282.58,3748.57 8970.23,2180.24 9192.58,848.969 9271.09,379.149 9187.59,-53.3825 8694.13,5.36564 8266.8,56.25 8097.52,585.826 7927.12,983.249 7782.17,1321.28 7629.51,1660.33 7582.02,1999.43 6635.48,2060.99 5643.94,2044.26 4840.23,1865.2 4639.1,1418.81 4481.66,674.16 4169.13,292.994 4041.26,136.884 3861.66,-3.98377 3555.6,24.5396 3053.56,274.455 3543.27,1314.64 3613.1,1769.33 3194.61,1637.17 2810.92,1457.95 2347.65,1424.17 1729.53,1379.18 1169.9,1628.67 832.953,2018.6 741.513,2124.41 692.444,2267.46 602.877,2382.88 388.719,2658.98 -67.9212,3001 8.53606,3456.64 166.289,3497.33 272.556,3343.34 411.113,3303.24 c -45.1,652.59 149.945,1309.81 728.607,1457.21 110.54,-106.82 246.3,-188.35 364.33,-287.63 155.03,75.05 174.45,285.66 402.66,287.63 -35.75,-349.19 43.13,-814.18 19.18,-1361.39 -12.71,-288.43 -45.79,-500.09 38.32,-690.25 117.64,-265.86 340.61,-433.44 747.79,-402.63 454.05,34.42 926.69,213.85 1188.75,460.15 192.24,804.83 359.26,1634.84 594.34,2396.69 -514.07,-436.3 -983.89,-887.32 -1514.71,-1380.46 -126,-117.06 -537,-616.58 -709.41,-287.57 -34.88,66.5 -39.79,217.14 -38.31,306.8 5.07,322.8 136.6,646.12 249.19,920.26 319.01,776.88 1023.26,1443.71 1629.78,1859.89 -11.24,100.6 33.78,145.16 19.19,249.22" /></g><g
         transform="scale(1.81875)"
         id="g26"><path
           id="path28"
           style="fill:#fcac54;fill-opacity:1;fill-rule:evenodd;stroke:none"
           d="m 11440.7,16300 c 35.1,-64 59.5,-139 79.4,-218.3 -468.8,-7.6 -639.3,-313.4 -853.5,-575.5 -184.2,20.8 -353.7,56.3 -555.7,59.5 385.4,302.6 724.9,651.2 1329.8,734.3" /></g><g
         transform="scale(1.7542)"
         id="g30"><path
           id="path32"
           style="fill:#b2b2b2;fill-opacity:1;fill-rule:evenodd;stroke:none"
           d="m 12849.4,16282.4 c 75.6,-6.7 182.2,17.6 226.3,-20.5 12.1,-169.9 -14.3,-301.3 -41.1,-432.2 -84.9,-2.5 -128.9,35.8 -226.4,20.6 -16.3,174.1 45.4,270.2 41.2,432.1" /></g><g
         transform="scale(1.74058)"
         id="g34"><path
           id="path36"
           style="fill:#000000;fill-opacity:1;fill-rule:evenodd;stroke:none"
           d="m 4322.82,14356.8 c 291.88,323.3 771.79,458.6 1140.55,705.1 63.11,393.2 244.45,668 290.35,1078.4 C 5000,15836.4 4614.11,15054 4322.82,14356.8 Z m 1513.86,1907.9 c 53.49,-442.6 -194.42,-758 -248.86,-1161.4 3.98,-29.3 153.17,32.9 186.69,-20.6 -34.28,-115.2 -167.19,-107.4 -248.88,-145.3 -600.13,-277.8 -1147.62,-656.1 -1596.89,-1099.1 77.38,136.9 165.82,262.8 269.6,373.3 85.33,478 384.12,1077.1 725.81,1472.5 198.81,229.8 559.72,615.9 912.53,580.6" /></g><g
         transform="scale(1.72131)"
         id="g38"><path
           id="path40"
           style="fill:#ffffff;fill-opacity:1;fill-rule:evenodd;stroke:none"
           d="m 10201,16300 c 676.4,-5.8 1348.3,-204.4 2034.1,-272.6 1023.8,-102 2061.9,-105 2977.9,-293.6 279.5,-57.6 573,-103.8 775.8,-293.7 -100.1,-1451.6 -290.9,-2812.7 -545.2,-4110.1 -1203.7,64.3 -2316.1,165.6 -3397.2,377.4 -345.2,67.7 -685.5,145.8 -1027.5,209.8 -161,30 -341.1,9.7 -503.4,41.9 -203.8,40.4 -429.8,168.5 -733.9,146.8 7.84,1410.9 318.1,2790.2 398.4,4131.1 -1.8,29.8 -3.4,59.4 21,63" /></g><g
         transform="scale(1.51536)"
         id="g42"><path
           id="path44"
           style="fill:#000000;fill-opacity:1;fill-rule:evenodd;stroke:none"
           d="m 9896.13,16300 c 15.91,0 31.81,0 47.58,0 213.19,-229.1 310.99,-558.5 452.59,-881.3 164.2,-374.3 361.2,-706.2 381.2,-1214.9 -335.4,657.1 -637.5,1347.5 -881.37,2096.2" /></g><g
         transform="scale(1.46885)"
         id="g46"><path
           id="path48"
           style="fill:#000000;fill-opacity:1;fill-rule:evenodd;stroke:none"
           d="m 10799.2,16300 c 238.7,-164 450.4,-528.3 368.6,-860.2 -164.4,245.2 -290.3,528.9 -368.6,860.2" /></g><g
         transform="scale(1.34484)"
         id="g50"><path
           id="path52"
           style="fill:#000000;fill-opacity:1;fill-rule:evenodd;stroke:none"
           d="m 5782.73,16300 c 136.32,-135.2 125.6,-775.4 0,-912.5 -202.59,130.5 -120.56,763 0,912.5" /></g><g
         transform="scale(1.3072)"
         id="g54"><path
           id="path56"
           style="fill:#000000;fill-opacity:1;fill-rule:evenodd;stroke:none"
           d="m 6335.77,16300 c 87.41,-41.6 97.75,-409.4 -27.53,-414.3 -153.38,39.9 -30.57,332.2 27.53,414.3" /></g><g
         transform="scale(1.2813)"
         id="g58"><path
           id="path60"
           style="fill:#000000;fill-opacity:1;fill-rule:evenodd;stroke:none"
           d="m 7957,15558.9 c -99.35,-210.7 -210.54,-409.2 -338.14,-591.6 438.12,40.2 1306.77,-17.6 1267.82,450.7 -300.63,56.2 -630.22,83.5 -929.68,140.9 z m -986.04,-591.6 c 168.97,18.7 275,-25.6 422.54,-28.2 61.66,257.7 246.69,391.9 309.96,647.9 -344.01,31.8 -729.97,171.5 -1042.34,140.9 116.7,-240.2 258.82,-454.7 309.84,-760.6 z m -281.76,56.3 c -49.64,297.8 -232.01,462.9 -253.45,788.8 -462.42,44.7 -849.9,164.4 -1239.65,281.7 345.63,-508.8 787.75,-921.2 1493.1,-1070.5 z m -1662.06,1267.7 c 1299.36,-278.2 2732.27,-422.9 4056.76,-676.1 -31.92,-141.6 113.72,-215.8 84.53,-394.3 -85.62,-524.5 -1310.7,-538.5 -1943.9,-507.2 -1221.51,60.7 -1953.91,620.1 -2281.88,1493.1 53.19,3.1 19.5,93.2 84.49,84.5" /></g><g
         transform="scale(1.26512)"
         id="g62"><path
           id="path64"
           style="fill:#fffdb0;fill-opacity:1;fill-rule:evenodd;stroke:none"
           d="m 5262.57,16300 c 394.74,-118.9 787.17,-240.1 1255.5,-285.3 21.72,-330.1 206.42,-497.3 256.7,-798.9 -714.37,151.2 -1162.15,568.8 -1512.2,1084.2" /></g><g
         transform="scale(1.23873)"
         id="g66"><path
           id="path68"
           style="fill:#877b7b;fill-opacity:1;fill-rule:evenodd;stroke:none"
           d="m 6890.03,16268.4 c 323.11,31.6 722.32,-112.8 1078.16,-145.8 -65.44,-264.7 -256.83,-403.6 -320.61,-670.2 -152.61,2.8 -262.28,48.6 -437.06,29.3 -52.77,316.3 -199.78,538.3 -320.49,786.7" /></g><g
         transform="scale(1.23434)"
         id="g70"><path
           id="path72"
           style="fill:#fffdb0;fill-opacity:1;fill-rule:evenodd;stroke:none"
           d="m 15512.2,16267.8 c -271.6,-440 -712.1,-711 -1286.7,-848 -21.8,294.9 239.6,559.5 321.7,848 336.5,-20.4 708.9,32.2 965,0" /></g><g
         transform="scale(1.22304)"
         id="g74"><path
           id="path76"
           style="fill:#fffdb0;fill-opacity:1;fill-rule:evenodd;stroke:none"
           d="m 9309.97,16152.4 c 40.81,-490.6 -869.22,-430.1 -1328.21,-472.2 133.68,191.1 250.17,399.1 354.25,619.8 313.73,-60.2 659.01,-88.7 973.96,-147.6" /></g><g
         transform="scale(1.22304)"
         id="g78"><path
           id="path80"
           style="fill:#877b7b;fill-opacity:1;fill-rule:evenodd;stroke:none"
           d="m 14356.9,16300 c -108,-285.7 -220.8,-566.2 -354.2,-826.5 -98.4,0 -196.7,0 -295.2,0 -65.1,269.7 -268.2,400.7 -324.6,678.9 342.4,31.4 648.7,99.1 974,147.6" /></g><g
         transform="scale(1.22099)"
         id="g82"><path
           id="path84"
           style="fill:#000000;fill-opacity:1;fill-rule:evenodd;stroke:none"
           d="m 5955.37,15558.8 c -311.56,65.5 -774.59,385.4 -827.75,709.5 26.22,23.1 66.75,31.7 118.26,29.6 170.57,-312.3 640.67,-325.2 709.49,-739.1" /></g><g
         transform="scale(1.32111)"
         id="g86"><path
           id="path88"
           style="fill:#b2b2b2;fill-opacity:1;fill-rule:evenodd;stroke:none"
           d="m 16296.7,14926.1 c -22.5,-332.7 3.3,-713.7 -300.6,-765.1 -122.5,203.7 -117,493.7 -81.9,792.4 81.4,39.9 245,-36.1 382.5,-27.3" /></g><g
         transform="scale(1.21109)"
         id="g90"><path
           id="path92"
           style="fill:#fffdb0;fill-opacity:1;fill-rule:evenodd;stroke:none"
           d="m 13187.1,16282.1 c 201.5,-136.5 184.8,-491 387.5,-626 -551.7,-15.1 -1124.1,207.1 -1460.4,506.8 322.8,137.1 715.8,20.1 1072.9,119.2" /></g><g
         transform="scale(1.18318)"
         id="g94"><path
           id="path96"
           style="fill:#000000;fill-opacity:1;fill-rule:evenodd;stroke:none"
           d="m 5138.9,16300 c 284.42,-10.6 416.99,-172.9 488.12,-396.6 -264.78,19.5 -491.95,206.3 -488.12,396.6" /></g><g
         transform="scale(1.23665)"
         id="g98"><path
           id="path100"
           style="fill:#000000;fill-opacity:1;fill-rule:evenodd;stroke:none"
           d="m 15570.9,14719.5 c -21.2,-89.2 29.7,-106.3 29.1,-175.1 142.4,22.9 245.5,85.4 379.4,116.8 4.5,72.6 -45.9,90.3 -58.4,145.9 -143.9,-1.8 -206.2,-85.6 -350.1,-87.6 z m 321,613 c 40.3,-105.5 128.4,-163.5 145.9,-291.8 68.1,0 136.1,0 204.3,0 -15.2,-72.4 -71.1,-104.1 -116.7,-145.9 18.4,-136.5 174.6,-260.9 87.5,-408.8 -112.8,-25.4 -103.8,71.3 -175.1,87.6 -102.3,-82.6 -197.6,-172.2 -350.3,-204.4 -16.7,-172.3 75,-236.3 58.4,-408.6 -127.7,-58.2 -181.7,179.9 -233.5,291.9 -115,-13.9 -197.7,-174.7 -321.1,-87.5 36,139 162.9,187.2 262.7,262.6 -4.9,82.7 -53.4,121.7 -58.4,204.4 -153.8,-31.3 -229.3,-140.4 -408.7,-146 23.6,200.3 226.7,220.9 350.4,321.1 -15.9,131.6 -142.9,290 -29.2,379.4 123.3,-32.3 146.5,-164.7 175.1,-291.7 138.4,17.3 230.1,81.1 350.2,116.6 -17.9,108.5 -69.4,183.4 -87.5,291.9 33.8,24.5 78.3,38.5 146,29.2" /></g><g
         transform="scale(1.1619)"
         id="g102"><path
           id="path104"
           style="fill:#000000;fill-opacity:1;fill-rule:evenodd;stroke:none"
           d="m 10794.1,15759.8 c 372.8,-124.2 623.5,-370.6 932,-559.2 189.5,235.1 375.8,473.3 559.2,714.5 -524.4,-24.4 -1042.2,-55.4 -1491.2,-155.3 z m 1708.7,310.7 c 27,-521.2 -469.9,-767.5 -714.6,-1118.5 -113.4,-677.9 799.5,-643.1 590.3,-1211.6 -289.2,-47.4 -337.9,405 -590.3,497 -300.8,-58.1 -360.6,-499.8 -683.4,-435 -90.1,352.4 314.4,470.3 465.9,683.6 0,145 0,290 0,435 -297.7,408.5 -1094.5,476.7 -1118.3,1056.3 603.3,71.6 1447.6,322.7 2050.4,93.2" /></g><g
         transform="scale(1.14775)"
         id="g106"><path
           id="path108"
           style="fill:#000000;fill-opacity:1;fill-rule:evenodd;stroke:none"
           d="m 6681.29,16300 c 21,0 41.97,0 62.97,0 186.06,-224.8 72.17,-910.5 94.31,-1195.1 -333.76,129.8 -209.74,861.4 -157.28,1195.1" /></g><g
         transform="scale(1.13446)"
         id="g110"><path
           id="path112"
           style="fill:#877b7b;fill-opacity:1;fill-rule:evenodd;stroke:none"
           d="m 12582.4,16300 c -187.8,-247.1 -378.6,-491 -572.7,-731.8 -315.9,193.1 -572.7,445.5 -954.6,572.7 459.9,102.3 990.2,134.1 1527.3,159.1" /></g><g
         transform="scale(1.12339)"
         id="g114"><path
           id="path116"
           style="fill:#000000;fill-opacity:1;fill-rule:evenodd;stroke:none"
           d="m 7211.88,16300 c 219.26,-60.1 175.98,-514.8 128.53,-739 -192.85,76.1 -217.44,586.3 -128.53,739" /></g><g
         transform="scale(1.21267)"
         id="g118"><path
           id="path120"
           style="fill:#fcac54;fill-opacity:1;fill-rule:evenodd;stroke:none"
           d="m 16235.8,15099.9 c 12.8,-56.7 64.2,-74.8 59.6,-148.7 -136.6,-32.1 -241.6,-95.9 -386.9,-119.1 0.6,70.1 -51.3,87.6 -29.7,178.5 146.8,2 210.3,87.5 357,89.3" /></g><g
         transform="scale(1.07326)"
         id="g122"><path
           id="path124"
           style="fill:#000000;fill-opacity:1;fill-rule:evenodd;stroke:none"
           d="m 5900.71,16287.7 c 57.2,12.3 63.38,-26.3 67.21,-67.4 -222.68,-325.1 -543.04,-557.5 -807.18,-840.8 -261.1,-279.9 -437.51,-672.3 -807.27,-840.8 371.41,727.4 901.86,1295.6 1547.24,1749" /></g><g
         transform="scale(1.02373)"
         id="g126"><path
           id="path128"
           style="fill:#000000;fill-opacity:1;fill-rule:evenodd;stroke:none"
           d="m 6362.42,16300 c 43.31,-15.3 72.44,-45 70.58,-105.7 -192.4,-183.2 -431.27,-362.7 -634.72,-564.1 -190.26,-188.6 -315.23,-498.1 -564.15,-529.1 132.14,643.7 664.73,886.9 1128.29,1198.9" /></g><g
         transform="scale(1.2987)"
         id="g130"><path
           id="path132"
           style="fill:#b2b2b2;fill-opacity:1;fill-rule:evenodd;stroke:none"
           d="m 16300,11987.3 c -19.4,-425.5 -55.5,-834 -111.2,-1223 -153.8,40.8 -285.2,103.9 -500.3,83.5 153.4,427.3 -61.6,1485.8 611.5,1139.5" /></g><g
         transform="scale(1.32237)"
         id="g134"><path
           id="path136"
           style="fill:#fcac54;fill-opacity:1;fill-rule:evenodd;stroke:none"
           d="m 15762.6,9261.41 c -217.9,317.77 -784.4,294.25 -682.5,818.79 50.6,261 472.6,398.7 709.8,273 364.2,-193 510.1,-962.62 -27.3,-1091.79" /></g><g
         transform="scale(1.25883)"
         id="g138"><path
           id="path140"
           style="fill:#b2b2b2;fill-opacity:1;fill-rule:evenodd;stroke:none"
           d="m 15898.5,9843.55 c 157.8,-52.67 294.4,-126.31 401.5,-229.42 -21.5,-380.03 -56.5,-862.86 -114.7,-1319.07 -166.4,-1303.75 -212.7,-2899.27 -430.1,-4243.93 -124.2,27.17 -300.4,-41.7 -344.2,0 59.3,1912.17 468.6,3835.61 487.5,5792.42" /></g><g
         transform="scale(1.85196)"
         id="g142"><path
           id="path144"
           style="fill:#fcac54;fill-opacity:1;fill-rule:evenodd;stroke:none"
           d="m 2893.33,8347.63 c 137.6,17.12 206.68,188.18 311.85,292.45 112.46,111.34 244.51,210.53 350.86,311.83 1.03,33.53 -15.07,49.95 -39.01,58.42 -256.25,-172.46 -550.66,-306.91 -623.7,-662.7 z m -370.37,77.97 c 214.28,97.63 316.51,325.06 467.83,487.27 153.08,164.15 338.74,298.82 467.79,487.26 -2.23,23.82 -5.81,46.17 -38.95,39.05 C 3045.61,9176.43 2738.2,8847.16 2522.96,8425.6 Z m 1929.68,1013.58 c 28.78,136.01 55.03,411.83 -77.97,448.28 -53.93,-92.61 -39.02,-402.12 77.97,-448.28 z m -214.45,-77.98 c -13.73,176.41 56.85,601.37 -58.46,740.7 -13.01,0 -26.01,0 -39.02,0 -32.51,-206.83 -109.37,-660.24 97.48,-740.7 z m 2319.5,662.7 c 14.96,-363.61 514.86,-406.37 701.64,-662.7 0,-90.93 0,-181.91 0,-272.9 -95.09,-133.8 -348.88,-207.78 -292.34,-428.84 202.54,-40.66 240.07,236.45 428.73,272.9 158.38,-57.72 188.94,-341.58 370.37,-311.83 131.26,356.65 -441.48,334.83 -370.37,760.17 153.57,220.2 465.29,374.73 448.34,701.7 -378.14,144 -907.85,-13.6 -1286.37,-58.5 z m 3956.71,194.9 c 12,-72.4 46.5,-122.5 58.4,-194.9 -80.3,-23.7 -141.5,-66.36 -233.9,-77.91 -19,84.81 -34.6,173.31 -116.9,194.81 -75.9,-59.7 8.9,-165.44 19.5,-253.34 -82.6,-66.91 -218.2,-80.67 -234,-214.42 119.8,3.72 170.2,76.62 272.9,97.51 3.3,-55.24 35.7,-81.26 39,-136.5 -66.6,-50.33 -151.3,-82.56 -175.4,-175.38 82.4,-58.21 137.6,49.19 214.4,58.48 34.6,-74.79 70.7,-233.81 156,-194.93 11,115.07 -50.2,157.78 -39.1,272.84 102,21.49 165.6,81.32 234,136.45 47.6,-10.85 41.6,-75.43 116.9,-58.47 58.1,98.76 -46.2,181.8 -58.4,272.95 30.4,27.97 67.7,49.08 77.9,97.51 -45.5,0 -90.9,0 -136.4,0 -11.7,85.6 -70.5,124.4 -97.5,194.8 -45.2,6.2 -74.9,-3.2 -97.4,-19.5 z m -6919.42,-58.4 c -45.44,142.8 -130.14,246.6 -311.85,253.3 -2.45,-121.5 142.68,-240.9 311.85,-253.3 z m -136.4,584.7 c -33.96,1.4 -60.68,-4.3 -77.97,-19.5 35.05,-213.7 340.32,-424.6 545.73,-467.8 -45.37,272.9 -355.31,281.4 -467.76,487.3 z m -38.95,467.8 c 226.9,-604 733.62,-991.1 1578.73,-1033.1 438.09,-21.7 1285.68,-11.9 1344.91,350.9 20.2,123.5 -80.56,174.9 -58.48,272.8 -916.37,175.2 -1907.74,275.3 -2806.71,467.8 -44.97,6 -21.65,-56.3 -58.45,-58.4 z m 1033.01,0 c 88.43,3.4 81.13,263 19.43,292.4 -41.01,-58 -127.69,-264.3 -19.43,-292.4 z m -253.4,-39 c 91.2,99.5 98.99,564.5 0,662.6 -87.55,-108.5 -147.12,-567.8 0,-662.6 z m 4658.34,1072 c 64.85,263.2 -103.03,552.1 -292.34,682.2 62.09,-262.8 161.93,-487.8 292.34,-682.2 z m -38.94,-623.7 c -16.36,416.3 -177.59,687.8 -311.88,994 -115.88,264.2 -195.9,533.7 -370.36,721.2 -12.91,0 -25.92,0 -38.94,0 199.58,-612.6 446.77,-1177.5 721.18,-1715.2 z m -4190.65,3118.6 c -321.13,-371.6 -601.96,-934.7 -682.15,-1383.9 -97.54,-103.9 -180.66,-222.2 -253.39,-350.9 422.25,416.4 936.81,772 1500.85,1033.1 76.77,35.6 201.7,28.2 233.92,136.4 -31.52,50.4 -171.73,-8.1 -175.47,19.5 51.17,379.1 284.16,675.5 233.89,1091.5 -331.59,33.2 -670.8,-329.7 -857.65,-545.7 z M 301.017,3221.55 c 70.582,37.26 115.317,-118.03 233.888,-97.46 95.092,519.29 111.9,1275.67 604.265,1461.8 230.22,-154.27 465.54,-360.1 662.62,-38.98 -90.88,-420.15 -160.04,-1014.39 -116.91,-1539.83 39.27,-477.65 393.94,-894.78 857.58,-916 658.6,-30.29 1193.7,274.9 1617.75,584.68 228.74,979.77 480.23,2040.53 682.23,2982.18 -268.79,-17.44 -466.5,-245.3 -643.2,-409.4 -545.81,-506.87 -1111.2,-1038.63 -1656.78,-1559.26 -87.79,363.45 89.62,701.9 214.46,994.07 371.48,870 1008.17,1499.23 1754.17,1988.06 51.79,-39.15 47.26,-134.56 116.9,-155.89 115.32,-24.35 129.11,52.81 194.94,77.97 3.41,-94.11 8.72,-186.18 77.96,-214.36 263.07,-3.3 234.05,285.69 467.85,311.83 2.54,120.52 -133.08,112.9 -175.44,136.39 -90.65,-91.31 -181.06,-182.83 -253.39,-292.34 -44.81,39.74 -7.06,161.88 -19.5,233.86 -105.4,39.53 -212.4,18.52 -233.9,-77.91 -44.25,66.2 -33.54,187.31 -116.96,214.36 -120.87,-2.54 -168.71,-78.18 -253.41,-116.9 23.32,148.11 92,346.34 58.53,487.27 -111.59,7.56 -155.12,-52.81 -175.43,-136.51 -706.02,223.12 -1192.26,666 -1773.68,1013.58 -195.74,39.2 -390.44,-37.21 -604.26,-38.99 -52.51,76.68 115.32,71.49 97.48,175.38 -13.02,64.96 -50.14,105.89 -136.43,97.52 92.01,110.53 94.39,246.01 116.92,389.8 -131.81,147.58 -392.35,166.37 -584.76,253.35 145.39,105.03 521.07,-79.21 623.78,97.52 -113.18,224.69 -427.17,248.55 -526.3,487.27 286.69,38.39 418.67,-273.76 623.69,-136.5 -275.37,684.99 -97.31,1766.19 136.49,2358.39 -110.96,-6.9 -212.79,-4.7 -253.39,58.6 -18.96,122.8 69.62,138.2 97.47,214.3 -83.83,91.7 -241.34,109.6 -350.87,175.5 162.82,64.5 366.49,22.2 389.81,175.4 22.04,144.7 -197.8,201.5 -214.37,311.9 116.58,-40.6 298.83,-102.7 370.29,19.5 -39.58,304.7 -215.01,473.6 -272.82,760.1 177.89,-95 257.43,-288.2 487.27,-331.4 86.45,43.5 70.42,189.5 77.97,311.9 95.16,28.5 90.55,-129.7 194.85,-136.5 176.39,-11.2 440.96,616.6 526.31,740.7 213.02,309.8 402.25,522.8 584.66,682.2 129.44,-22.3 192.41,-185.5 311.93,-155.9 173.76,43 90.65,374.1 97.47,565.3 538.51,448.9 1082.43,892.6 1890.55,1071.9 149.84,-479.7 -62.36,-1072.6 -116.85,-1539.8 -107.88,-106.6 -270.3,-158.5 -292.44,-350.8 138.55,14.1 229.59,167.1 350.87,253.4 126.95,90.4 263.39,180.8 428.84,214.4 -9.29,-162.2 -237.05,-201.3 -155.94,-389.8 227.86,97 305.35,344.3 565.24,409.3 -32.83,-110.2 -170.9,-115 -156,-272.9 85.04,-94.6 217.61,22 350.87,0 -101.51,-119.4 -337.21,-104.6 -350.87,-311.8 57.13,-76.5 249.36,-5.9 370.36,-19.6 373.39,-41.9 699.69,-326 1072.06,-370.3 46.22,-39.8 -26.84,-77.1 19.43,-116.9 283.86,125.5 476.26,342.4 818.65,409.3 -68.31,-185.1 -235.43,-271.3 -292.34,-467.8 62.8,-45.6 194.61,11.8 272.9,58.5 -9.45,-124.5 -166.63,-192 -97.46,-331.4 165.5,53.4 231.7,294.9 214.36,467.9 -60.9,53.3 -151.35,-29.9 -194.87,-58.6 25.7,118.5 304.22,230.9 214.37,467.8 -83,-7.9 -172.9,-9 -233.86,-38.9 -35.32,66.3 102.91,141.9 175.38,214.3 80.83,80.9 170.36,172.8 214.36,253.4 -100.91,-1133.4 -336.67,-2301.1 -350.76,-3586.4 141.04,-175.2 464.1,-142.1 682.14,-194.8 -526.52,-168.3 -1241.76,-204.7 -1890.64,-272.9 -32.34,-186.3 153.35,-360.3 292.39,-448.3 794.24,-503.07 2234.21,-169.9 2533.81,565.3 121.9,-34.2 257,-55.1 409.3,-58.6 98.5,-284.8 175.9,-590.7 234,-915.98 -3.8,-106.7 -116.1,-104.86 -78.1,-253.41 150.9,50.65 236.6,335.1 487.3,350.76 44.7,-97.78 -52.8,-166.47 -77.9,-253.3 156.7,-31.69 358.2,38.72 545.8,38.94 -83.4,-117.99 -214.7,-188.18 -253.4,-350.88 30.6,-125.16 184.3,-127.48 272.8,-194.82 -5.7,-256.26 -778.7,-387.58 -233.8,-545.85 -158.5,-189.85 -496,64.96 -682.2,39.04 -162.5,-22.62 -252.1,-331.59 -389.8,-506.81 -66.6,-84.51 -194.4,-159.94 -292.5,-253.36 -84.2,-80.29 -139,-191.04 -194.8,-233.91 -103.2,-79 -287.6,-133.16 -448.34,-214.37 -361.35,-182.5 -915.95,-537.8 -1305.91,-623.71 -83.59,-18.47 -145.85,8.04 -214.43,-19.49 -131.37,-52.81 -199.3,-181.43 -370.25,-272.9 179.86,45.51 369.07,53.94 565.13,97.46 160.21,35.53 315.34,143.74 467.88,155.94 141.09,11.34 286.07,-47.03 428.79,-38.93 405.89,22.84 787.73,157.51 1188.93,214.37 132.8,-181.86 43.5,-512.76 19.5,-760.17 -667.06,-352.92 -1653.15,-386.99 -2319.47,-740.67 -174.41,-265.4 -60.42,-685.33 -19.44,-1013.52 90.93,-728.31 248.33,-1409.32 428.79,-2105.01 174.3,-671.94 426.09,-1349.22 409.3,-2066.134 -520.7,-236.9384 -669.46,330.838 -877.07,799.204 -175.6,396.01 -317.4,762.54 -350.88,1071.94 -108.1,107.73 -273.06,106.38 -428.73,117.02 -780.25,53.02 -1720.39,-11.83 -2358.53,-136.51 -234.2,-45.68 -482.28,-22.46 -662.63,-136.39 8.49,-102 106.59,-114.31 214.37,-116.9 C 4476.91,1494.36 4364.2,849.477 4101.77,492.721 4018.89,380.03 3841.64,198.385 3653.43,278.353 3670,870.105 3793.02,1515.09 3965.36,1993.51 c 41.56,115.5 200.41,254.48 58.45,370.36 -106.43,-10.53 -91.21,-142.66 -136.42,-214.37 -919.82,-435.86 -2150.86,-741.75 -2845.7,38.93 -103.745,116.58 -117.303,265.56 -214.453,389.92 -164.724,210.8 -426.457,352.97 -526.22,643.2" /></g><g
         transform="scale(1.72352)"
         id="g146"><path
           id="path148"
           style="fill:#ff9999;fill-opacity:1;fill-rule:evenodd;stroke:none"
           d="m 5810.66,16300 c -46.35,-414.4 -229.49,-692 -293.22,-1089 -372.41,-249 -857.07,-385.6 -1151.84,-712.1 294.18,704.1 683.89,1494.2 1445.06,1801.1" /></g></g></g></svg>
